<?xml version="1.0" standalone="no"?>
<svg xmlns="http://www.w3.org/2000/svg" viewBox="0 0 210.168 29" width="210.168" height="29"><g fill="#000000" color="#000000" transform="translate(0, 0) scale(0.29)"><svg width="100.0" height="100.0" x="0.0" y="0.0" viewBox="0 0 100 100"><path d="M7.2,84.7h85.5c3.2,0,5.8-2.6,5.8-5.8v-2.5c0-0.5-0.2-1-0.5-1.4l-4.3-5.3c-0.7-0.9-1.1-1.9-1.1-3v-5v-3.2v-9.2l0,0V23.7  c0-4.7-3.8-8.5-8.5-8.5H52.4H15.9c-4.7,0-8.5,3.8-8.5,8.5v34.8v1.9v6.2c0,1.1-0.4,2.2-1.1,3L2,75.1c-0.3,0.4-0.5,0.9-0.5,1.4V79  C1.5,82.2,4.1,84.7,7.2,84.7z M59.2,76.4c0,1.6-1.3,2.9-2.9,2.9H43.8c-1.6,0-2.9-1.3-2.9-2.9v-0.6h18.4V76.4z M15.9,60.8v-2.2V23.7  c0,0,0,0,0,0h40.3h27.9c0,0,0,0,0,0v34.9v2.2v0.6h0v0.4v5.5H15.9V60.8z M54.9,32.9l3.9,2.2l-13.7,24l-3.9-2.2L54.9,32.9z M38.5,38  l-8,8l8,8l-3.2,3.2l-8-8L24.2,46l3.2-3.2l8-8L38.5,38z M72.6,42.8l3.2,3.2l-3.2,3.2l-8,8L61.5,54l8-8l-8-8l3.2-3.2L72.6,42.8z"></path></svg></g><line x1="41" y1="1" x2="41" y2="28" stroke="#000000" stroke-linecap="round"></line><path fill="#000000" fill-rule="nonzero" d="M4.68 17.21L4.68 17.21Q3.38 17.21 2.33 16.56Q1.27 15.91 0.64 14.82Q0 13.73 0 12.38L0 12.38L0 4.78Q0 3.48 0.64 2.39Q1.27 1.30 2.34 0.65Q3.41 0 4.68 0L4.68 0Q6 0 7.07 0.64Q8.14 1.27 8.76 2.35Q9.38 3.43 9.38 4.78L9.38 4.78L9.38 5.88Q9.38 5.98 9.26 5.98L9.26 5.98L6.58 5.98Q6.48 5.98 6.48 5.88L6.48 5.88L6.48 4.97Q6.48 4.06 5.96 3.46Q5.45 2.86 4.68 2.86L4.68 2.86Q3.98 2.86 3.44 3.43Q2.90 4.01 2.90 4.78L2.90 4.78L2.90 12.38Q2.90 13.18 3.43 13.74Q3.96 14.30 4.68 14.30L4.68 14.30Q5.45 14.30 5.96 13.75Q6.48 13.20 6.48 12.38L6.48 12.38L6.48 11.21L4.80 11.21Q4.68 11.21 4.68 11.09L4.68 11.09L4.68 8.40Q4.68 8.28 4.80 8.28L4.80 8.28L9.29 8.28Q9.38 8.28 9.38 8.40L9.38 8.40L9.38 12.38Q9.38 13.73 8.75 14.82Q8.11 15.91 7.06 16.56Q6 17.21 4.68 17.21ZM13.92 16.97L11.21 16.97Q11.09 16.97 11.09 16.85L11.09 16.85L11.11 0.36Q11.11 0.26 11.21 0.26L11.21 0.26L13.90 0.26Q13.99 0.26 13.99 0.36L13.99 0.36L14.02 16.85Q14.02 16.97 13.92 16.97L13.92 16.97ZM20.54 17.21L20.54 17.21Q19.27 17.21 18.19 16.55Q17.11 15.89 16.48 14.78Q15.84 13.68 15.84 12.36L15.84 12.36L15.89 0.36Q15.89 0.26 15.98 0.26L15.98 0.26L18.67 0.26Q18.77 0.26 18.77 0.36L18.77 0.36L18.77 12.36Q18.77 13.18 19.28 13.74Q19.80 14.30 20.54 14.30L20.54 14.30Q21.31 14.30 21.83 13.74Q22.34 13.18 22.34 12.36L22.34 12.36L22.34 0.36Q22.34 0.26 22.44 0.26L22.44 0.26L25.13 0.26Q25.22 0.26 25.22 0.36L25.22 0.36L25.27 12.36Q25.27 13.70 24.64 14.81Q24 15.91 22.93 16.56Q21.86 17.21 20.54 17.21ZM31.25 17.21L31.25 17.21Q29.95 17.21 28.88 16.55Q27.82 15.89 27.18 14.80Q26.54 13.70 26.54 12.38L26.54 12.38L26.54 11.28Q26.54 11.16 26.66 11.16L26.66 11.16L29.35 11.16Q29.45 11.16 29.45 11.28L29.45 11.28L29.45 12.38Q29.45 13.18 29.98 13.74Q30.50 14.30 31.25 14.30L31.25 14.30Q31.99 14.30 32.52 13.73Q33.05 13.15 33.05 12.38L33.05 12.38Q33.05 11.50 31.90 10.85L31.90 10.85Q31.51 10.63 30.70 10.18Q29.88 9.72 29.16 9.31L29.16 9.31Q27.84 8.54 27.20 7.38Q26.57 6.22 26.57 4.75L26.57 4.75Q26.57 3.41 27.22 2.34Q27.86 1.27 28.93 0.65Q30 0.02 31.25 0.02L31.25 0.02Q32.52 0.02 33.59 0.66Q34.66 1.30 35.29 2.36Q35.93 3.43 35.93 4.75L35.93 4.75L35.93 6.72Q35.93 6.82 35.83 6.82L35.83 6.82L33.14 6.82Q33.05 6.82 33.05 6.72L33.05 6.72L33.02 4.75Q33.02 3.91 32.50 3.38Q31.97 2.86 31.25 2.86L31.25 2.86Q30.50 2.86 29.98 3.42Q29.45 3.98 29.45 4.75L29.45 4.75Q29.45 5.54 29.78 6.07Q30.12 6.60 31.01 7.08L31.01 7.08Q31.13 7.15 31.48 7.33Q31.82 7.51 32.23 7.74Q32.64 7.97 32.96 8.14Q33.29 8.30 33.36 8.35L33.36 8.35Q34.56 9.02 35.26 10.00Q35.95 10.97 35.95 12.38L35.95 12.38Q35.95 13.75 35.32 14.84Q34.68 15.94 33.61 16.57Q32.54 17.21 31.25 17.21ZM45.48 16.97L37.73 16.97Q37.63 16.97 37.63 16.85L37.63 16.85L37.66 0.36Q37.66 0.26 37.75 0.26L37.75 0.26L45.46 0.26Q45.55 0.26 45.55 0.38L45.55 0.38L45.55 3.07Q45.55 3.17 45.46 3.17L45.46 3.17L40.54 3.17L40.54 6.91L45.46 6.91Q45.55 6.91 45.55 7.01L45.55 7.01L45.58 9.72Q45.58 9.82 45.48 9.82L45.48 9.82L40.54 9.82L40.54 14.02L45.48 14.02Q45.58 14.02 45.58 14.14L45.58 14.14L45.58 16.87Q45.58 16.97 45.48 16.97L45.48 16.97ZM50.52 16.97L47.83 16.97Q47.71 16.97 47.71 16.85L47.71 16.85L47.76 0.36Q47.76 0.26 47.86 0.26L47.86 0.26L52.46 0.26Q54.67 0.26 55.96 1.61Q57.24 2.95 57.24 5.26L57.24 5.26Q57.24 6.96 56.57 8.21Q55.90 9.46 54.82 10.13Q53.74 10.80 52.46 10.80L52.46 10.80L50.64 10.80L50.64 16.85Q50.64 16.97 50.52 16.97L50.52 16.97ZM50.64 3.14L50.64 7.90L52.46 7.90Q53.23 7.90 53.80 7.16Q54.36 6.43 54.36 5.26L54.36 5.26Q54.36 4.32 53.86 3.72Q53.35 3.12 52.46 3.12L52.46 3.12L50.64 3.14ZM61.68 16.97L58.99 16.97Q58.87 16.97 58.87 16.85L58.87 16.85L58.92 0.36Q58.92 0.26 59.02 0.26L59.02 0.26L63.62 0.26Q65.83 0.26 67.12 1.61Q68.40 2.95 68.40 5.26L68.40 5.26Q68.40 6.96 67.73 8.21Q67.06 9.46 65.98 10.13Q64.90 10.80 63.62 10.80L63.62 10.80L61.80 10.80L61.80 16.85Q61.80 16.97 61.68 16.97L61.68 16.97ZM61.80 3.14L61.80 7.90L63.62 7.90Q64.39 7.90 64.96 7.16Q65.52 6.43 65.52 5.26L65.52 5.26Q65.52 4.32 65.02 3.72Q64.51 3.12 63.62 3.12L63.62 3.12L61.80 3.14ZM77.88 16.97L70.13 16.97Q70.03 16.97 70.03 16.85L70.03 16.85L70.06 0.36Q70.06 0.26 70.15 0.26L70.15 0.26L77.86 0.26Q77.95 0.26 77.95 0.38L77.95 0.38L77.95 3.07Q77.95 3.17 77.86 3.17L77.86 3.17L72.94 3.17L72.94 6.91L77.86 6.91Q77.95 6.91 77.95 7.01L77.95 7.01L77.98 9.72Q77.98 9.82 77.88 9.82L77.88 9.82L72.94 9.82L72.94 14.02L77.88 14.02Q77.98 14.02 77.98 14.14L77.98 14.14L77.98 16.87Q77.98 16.97 77.88 16.97L77.88 16.97ZM88.08 17.21L88.08 17.21Q86.76 17.21 85.69 16.55Q84.62 15.89 84 14.78Q83.38 13.68 83.38 12.31L83.38 12.31L83.40 4.82Q83.40 3.50 84.01 2.41Q84.62 1.32 85.69 0.66Q86.76 0 88.08 0L88.08 0Q89.40 0 90.46 0.65Q91.51 1.30 92.14 2.39Q92.76 3.48 92.76 4.82L92.76 4.82L92.76 5.93Q92.76 6.02 92.66 6.02L92.66 6.02L89.98 6.02Q89.88 6.02 89.88 5.93L89.88 5.93L89.88 4.82Q89.88 4.03 89.36 3.46Q88.85 2.88 88.08 2.88L88.08 2.88Q87.22 2.88 86.76 3.47Q86.30 4.06 86.30 4.82L86.30 4.82L86.30 12.31Q86.30 13.20 86.82 13.75Q87.34 14.30 88.08 14.30L88.08 14.30Q88.85 14.30 89.36 13.69Q89.88 13.08 89.88 12.31L89.88 12.31L89.88 11.21Q89.88 11.11 89.98 11.11L89.98 11.11L92.69 11.11Q92.78 11.11 92.78 11.21L92.78 11.21L92.78 12.31Q92.78 13.68 92.15 14.78Q91.51 15.89 90.46 16.55Q89.40 17.21 88.08 17.21ZM102.38 16.97L94.63 16.97Q94.54 16.97 94.54 16.85L94.54 16.85L94.56 0.36Q94.56 0.26 94.66 0.26L94.66 0.26L102.36 0.26Q102.46 0.26 102.46 0.38L102.46 0.38L102.46 3.07Q102.46 3.17 102.36 3.17L102.36 3.17L97.44 3.17L97.44 6.91L102.36 6.91Q102.46 6.91 102.46 7.01L102.46 7.01L102.48 9.72Q102.48 9.82 102.38 9.82L102.38 9.82L97.44 9.82L97.44 14.02L102.38 14.02Q102.48 14.02 102.48 14.14L102.48 14.14L102.48 16.87Q102.48 16.97 102.38 16.97L102.38 16.97ZM107.23 16.97L104.83 16.97Q104.64 16.97 104.64 16.80L104.64 16.80L104.62 0.46Q104.62 0.26 104.81 0.26L104.81 0.26L106.97 0.26L111.02 9.72L110.90 0.46Q110.90 0.26 111.12 0.26L111.12 0.26L113.50 0.26Q113.64 0.26 113.64 0.46L113.64 0.46L113.66 16.82Q113.66 16.97 113.54 16.97L113.54 16.97L111.43 16.97L107.28 8.14L107.45 16.78Q107.45 16.97 107.23 16.97L107.23 16.97ZM118.37 16.97L115.97 16.97Q115.78 16.97 115.78 16.80L115.78 16.80L115.75 0.46Q115.75 0.26 115.94 0.26L115.94 0.26L118.10 0.26L122.16 9.72L122.04 0.46Q122.04 0.26 122.26 0.26L122.26 0.26L124.63 0.26Q124.78 0.26 124.78 0.46L124.78 0.46L124.80 16.82Q124.80 16.97 124.68 16.97L124.68 16.97L122.57 16.97L118.42 8.14L118.58 16.78Q118.58 16.97 118.37 16.97L118.37 16.97ZM126.07 16.85L126.07 16.85L129.05 0.36Q129.07 0.26 129.17 0.26L129.17 0.26L132.65 0.26Q132.74 0.26 132.77 0.36L132.77 0.36L135.62 16.85Q135.65 16.97 135.53 16.97L135.53 16.97L132.86 16.97Q132.77 16.97 132.74 16.85L132.74 16.85L132.48 15.10L129.22 15.10L128.95 16.85Q128.93 16.97 128.83 16.97L128.83 16.97L126.17 16.97Q126.07 16.97 126.07 16.85ZM130.78 5.78L129.70 12.53L132.00 12.53L131.02 5.78L130.87 4.90L130.78 5.78ZM139.94 16.97L137.23 16.97Q137.14 16.97 137.14 16.85L137.14 16.85L137.18 0.36Q137.18 0.26 137.28 0.26L137.28 0.26L140.21 0.26Q140.30 0.26 140.38 0.36L140.38 0.36L142.56 3.53L144.74 0.36Q144.82 0.26 144.91 0.26L144.91 0.26L147.86 0.26Q147.96 0.26 147.96 0.36L147.96 0.36L148.01 16.85Q148.01 16.97 147.91 16.97L147.91 16.97L145.20 16.97Q145.10 16.97 145.10 16.85L145.10 16.85L145.08 4.61L142.56 8.26L140.06 4.61L140.04 16.85Q140.04 16.97 139.94 16.97L139.94 16.97ZM154.46 17.21L154.46 17.21Q153.17 17.21 152.10 16.55Q151.03 15.89 150.38 14.80Q149.74 13.70 149.74 12.38L149.74 12.38L149.76 4.78Q149.76 3.46 150.40 2.38Q151.03 1.30 152.11 0.65Q153.19 0 154.46 0L154.46 0Q155.76 0 156.82 0.65Q157.87 1.30 158.51 2.38Q159.14 3.46 159.14 4.78L159.14 4.78L159.17 12.38Q159.17 13.70 158.53 14.80Q157.90 15.89 156.83 16.55Q155.76 17.21 154.46 17.21ZM154.46 14.30L154.46 14.30Q155.18 14.30 155.72 13.72Q156.26 13.13 156.26 12.38L156.26 12.38L156.24 4.78Q156.24 3.98 155.74 3.43Q155.23 2.88 154.46 2.88L154.46 2.88Q153.72 2.88 153.19 3.42Q152.66 3.96 152.66 4.78L152.66 4.78L152.66 12.38Q152.66 13.18 153.19 13.74Q153.72 14.30 154.46 14.30Z" transform="translate(51, 5.896)"></path></svg>